<svg width="889" height="363" xmlns="http://www.w3.org/2000/svg">
 <desc>Created with Snap</desc>
 <defs>
  <linearGradient id="linearGradientSkhrq783w6zb" y2="0.5" x2="1" y1="0.5" x1="0">
   <stop stop-color="#1d3557" offset="0%"/>
   <stop stop-color="#1d3557" offset="100%"/>
  </linearGradient>
  <linearGradient id="linearGradientSkhrq783w6ze" y2="0.5" x2="1" y1="0.5" x1="0">
   <stop stop-color="#1d3557" offset="0%"/>
   <stop stop-color="#1d3557" offset="100%"/>
  </linearGradient>
  <linearGradient id="linearGradientSkhrq783w6zk" y2="0.5" x2="1" y1="0.5" x1="0">
   <stop stop-color="#f0ead6" offset="0%"/>
   <stop stop-color="#f0ead6" offset="100%"/>
  </linearGradient>
  <linearGradient id="linearGradientSkhrq783w708" y2="0.5" x2="1" y1="0.5" x1="0">
   <stop stop-color="#1d3557" offset="0%"/>
   <stop stop-color="#1d3557" offset="100%"/>
  </linearGradient>
  <linearGradient id="linearGradientSkhrq783w71g" y2="0.5" x2="1" y1="0.5" x1="0">
   <stop stop-color="#1d3557" offset="0%"/>
   <stop stop-color="#1d3557" offset="100%"/>
  </linearGradient>
  <linearGradient id="linearGradientSkhrq783w71y" y2="0.5" x2="1" y1="0.5" x1="0">
   <stop stop-color="#f0ead6" offset="0%"/>
   <stop stop-color="#f0ead6" offset="100%"/>
  </linearGradient>
  <linearGradient id="linearGradientSkhrq783w724" y2="0.5" x2="1" y1="0.5" x1="0">
   <stop stop-opacity="0.99" stop-color="#e63946" offset="0%"/>
   <stop stop-opacity="0.99" stop-color="#e63946" offset="100%"/>
  </linearGradient>
 </defs>
 <g>
  <title>background</title>
  <rect fill="none" id="canvas_background" height="365" width="891" y="-1" x="-1"/>
 </g>
 <g>
  <title>Layer 1</title>
  <g id="svg_13" transform="matrix(1,0,0,1,347,256) " class="selector-part">
   <rect id="svg_14" fill="rgba(255,255,255,0)" height="0" width="0" y="0" x="0"/>
  </g>
  <g id="svg_15" class="svg-clip svg-visible" transform="matrix(1.5666,1.2686,-1.2686,1.5666,347.7664,61.721) ">
   <rect x="-115.14507" y="-42.08283" id="svg_16" class="svg-hitbox" fill="none" height="186" width="187"/>
   <svg y="5.28809" x="-120.82952" id="svg_17" viewBox="-5.131860901213205,-5,187.0337218024264,186.77" height="186.77" width="187.03372">
    <desc>Created with Snap</desc>

    <g id="svg_18"/>
    <g id="svg_19"/>
    <g id="svg_20"/>
    <g id="svg_21"/>
    <g id="svg_22"/>
    <g id="svg_23"/>
    <g id="svg_24">
     <circle id="svg_25" fill="url('#linearGradientSkhrq783w71y')" r="88.385" cy="88.385" cx="88.385"/>
    </g>
   </svg>
  </g>
  <g id="svg_26" class="svg-clip svg-visible" transform="matrix(1.6926,0,0,1.6926,251.1587,193.5971) ">
   <rect id="svg_27" class="svg-hitbox" fill="none" height="94" width="59" y="-96.89235" x="-107.52688"/>
   <svg y="-96.89235" x="-107.52688" id="svg_28" viewBox="20.767625015550834,2.0696698864201997,59.445587946570626,94.93033335975147" height="94.93033" width="59.44559">
    <desc>Created with Snap</desc>

    <g id="svg_29"/>
    <g id="svg_30"/>
    <g id="svg_31"/>
    <g id="svg_32"/>
    <g id="svg_33"/>
    <g id="svg_34"/>
    <g id="svg_35"/>
    <g id="svg_36">
     <path id="svg_37" fill="url('#linearGradientSkhrq783w71g')" d="m72.896,44.271c1.414,-10.448 4.592,-21.304 -0.342,-31.318c-2.926,-5.944 -10.301,-8.457 -14.311,-2.398c-3.316,5.008 -3.5,12.253 -4.047,18.081c-0.369,3.921 -0.828,7.828 -1.604,11.692c-0.385,1.92 -0.898,3.838 -1.702,5.627c-1.893,4.22 -3.949,-0.354 -4.676,-2.768c-2.851,-9.488 -2.551,-19.699 -5.947,-29.047c-2.525,-6.948 -7.231,-6.179 -10.812,-0.439c-6.079,9.744 -3.042,23.772 -2.033,34.394c1.361,14.335 -0.689,28.52 0.261,42.822c0.096,1.439 2.346,1.449 2.25,0c-0.498,-7.491 -0.005,-14.946 0.394,-22.43c0.396,-7.438 -0.127,-14.841 -0.831,-22.244c-0.582,-6.138 -1.344,-12.236 -1.203,-18.412c0.074,-3.24 0.613,-6.409 1.555,-9.504c0.808,-2.657 4.369,-10.137 7.282,-5.624c1.839,2.848 2.396,6.695 3.083,9.961c1.33,6.323 2.076,12.782 3.352,19.126c0.832,4.146 4.81,12.433 8.942,5.923c3.41,-5.374 3.422,-13.569 4,-19.727c0.475,-5.036 1.116,-20.634 8.993,-18.619c6.189,1.584 7.402,10.612 7.555,15.8c0.203,6.882 -1.811,13.735 -2.604,20.535c-0.852,7.314 -0.271,14.471 0.346,21.78c0.668,7.902 0.447,15.374 -0.418,23.236c-0.158,1.441 2.094,1.426 2.25,0c0.795,-7.23 1.109,-14.11 0.568,-21.386c-0.627,-8.449 -1.443,-16.613 -0.301,-25.061z"/>
    </g>
   </svg>
  </g>
  <g id="svg_38" class="svg-clip svg-visible" transform="matrix(1.6926,0,0,1.6926,271.9777,312.4943) ">
   <rect id="svg_39" class="svg-hitbox" fill="none" height="14" width="14" y="-96.89235" x="-107.52688"/>
   <g id="svg_3">
    <svg y="-96.89235" x="-107.52688" id="svg_40" viewBox="31.905105973682737,71.6279842061316,14.337081804452296,14.480819135865687" height="14.48082" width="14.33708">
     <desc>Created with Snap</desc>

     <g id="svg_41"/>
     <g id="svg_42"/>
     <g id="svg_43"/>
     <g id="svg_44"/>
     <g id="svg_45"/>
     <g id="svg_46"/>
     <g id="svg_47"/>
     <g id="svg_48">
      <path id="svg_49" fill="url('#linearGradientSkhrq783w6zb')" d="m38.65,76.713c-0.073,0.026 -0.132,0.062 -0.197,0.096c-0.298,-0.009 -0.596,0.093 -0.797,0.326c-0.835,0.966 -1.1,2.273 -0.136,3.261c0.705,0.723 1.959,0.956 2.833,0.418c1.248,-0.769 1.042,-2.544 0.243,-3.548c-0.418,-0.526 -1.317,-0.784 -1.946,-0.553z"/>
     </g>
    </svg>
   </g>
  </g>
  <g id="svg_50" class="svg-clip svg-visible" transform="matrix(1.6926,0,0,1.6926,316.0292,312.4943) ">
   <rect id="svg_51" class="svg-hitbox" fill="none" height="14" width="14" y="-96.89235" x="-107.52688"/>
   <g id="svg_4">
    <svg y="-96.89235" x="-107.52688" id="svg_52" viewBox="57.82812226985368,71.19672619691401,14.516491027626714,14.854775328590677" height="14.85478" width="14.51649">
     <desc>Created with Snap</desc>

     <g id="svg_53"/>
     <g id="svg_54"/>
     <g id="svg_55"/>
     <g id="svg_56"/>
     <g id="svg_57"/>
     <g id="svg_58"/>
     <g id="svg_59"/>
     <g id="svg_60">
      <path id="svg_61" fill="url('#linearGradientSkhrq783w6ze')" d="m65.506,76.256c-0.194,-0.05 -0.371,-0.047 -0.531,-0.012c-0.189,-0.062 -0.41,-0.068 -0.656,0.012c-1.098,0.355 -1.588,1.563 -1.475,2.649c0.141,1.36 1.135,2.358 2.557,2.108c1.105,-0.194 1.801,-1.215 1.928,-2.268c0.142,-1.189 -0.702,-2.203 -1.823,-2.489z"/>
     </g>
    </svg>
   </g>
  </g>
  <g id="svg_62" class="svg-clip svg-visible" transform="matrix(0.2792,0,0,0.2792,235.8563,335.4974) ">
   <rect id="svg_63" class="svg-hitbox" fill="none" height="112" width="510" y="-587.39257" x="-651.86247"/>
   <g id="svg_5">
    <svg y="-587.39257" x="-651.86247" id="svg_64" viewBox="-5.31043005461071,193.79100000000008,510.4651149861488,112.17368807924899" height="112.17369" width="510.46511">
     <desc>Created with Snap</desc>

     <g id="svg_65"/>
     <g id="svg_66"/>
     <g id="svg_67"/>
     <g id="svg_68"/>
     <g id="svg_69"/>
     <g id="svg_70"/>
     <g id="svg_71"/>
     <g id="svg_72">
      <path id="svg_73" fill="url('#linearGradientSkhrq783w708')" d="m496.332,237.36c-0.691,-1.366 -1.44,-2.563 -2.299,-3.857c-0.335,-0.471 -0.946,-1.271 -1.439,-1.792c-0.518,-0.571 -1.077,-1.1 -1.657,-1.589c-2.336,-1.961 -5.046,-3.124 -7.613,-3.702c-0.322,-0.08 -0.641,-0.145 -0.96,-0.204l-0.54,-0.099l-0.438,-0.06c-0.257,-0.042 -0.725,-0.069 -1.071,-0.099c-0.354,-0.002 -0.694,-0.015 -1.037,0.003c-1.375,0.066 -2.701,0.353 -3.897,0.844c-2.405,0.964 -4.265,2.609 -5.567,4.409c-1.298,1.813 -2.063,3.812 -2.348,5.747c-0.296,1.957 0.017,3.789 0.463,5.337c0.892,3.104 2.334,5.489 3.867,7.081c1.536,1.614 3.201,2.262 4.292,2.434c0.554,0.095 0.975,0.1 1.253,0.095c0.278,-0.016 0.422,-0.021 0.422,-0.021s-0.138,-0.012 -0.42,-0.035c-0.273,-0.029 -0.688,-0.092 -1.204,-0.251c-1.033,-0.303 -2.47,-1.126 -3.711,-2.767c-1.237,-1.623 -2.313,-4.009 -2.787,-6.919c-0.247,-1.443 -0.286,-2.985 0.129,-4.506c0.394,-1.531 1.187,-3.062 2.351,-4.36c1.162,-1.293 2.708,-2.354 4.454,-2.834c0.867,-0.252 1.786,-0.337 2.701,-0.282c0.229,0.009 0.462,0.05 0.686,0.071c0.229,0.054 0.347,0.054 0.661,0.137l0.428,0.104l0.322,0.1c0.259,0.077 0.513,0.156 0.765,0.25c2.022,0.709 3.918,1.758 5.423,3.272c1.51,1.465 2.586,3.559 3.582,5.916c3.904,9.216 2.938,22.115 -6.566,29.694c-2.267,1.98 -4.866,3.656 -7.715,5.052c-2.815,1.346 -6.08,2.551 -9.069,3.202c-3.018,0.589 -6.563,0.827 -10.131,0.884c-3.582,0.039 -7.292,-0.088 -10.931,-0.417l-1.342,-0.135l-1.269,-0.157l-1.354,-0.206l-1.394,-0.233c-1.865,-0.289 -3.723,-0.65 -5.582,-1.049c-3.709,-0.807 -7.424,-1.733 -11.093,-2.921c-3.684,-1.145 -7.317,-2.544 -10.909,-4.162c-3.603,-1.588 -7.147,-3.425 -10.652,-5.456c-3.513,-2.008 -6.983,-4.225 -10.428,-6.587c-1.74,-1.167 -3.417,-2.39 -5.115,-3.599l-2.623,-1.929l-1.313,-0.974l-1.19,-0.911c-6.624,-5.1 -13.314,-10.896 -20.111,-16.68c-1.719,-1.453 -3.439,-2.91 -5.161,-4.369l-2.665,-2.203l-2.651,-2.138c-3.523,-2.818 -7.134,-5.68 -10.913,-8.461c-3.764,-2.772 -7.759,-5.494 -11.899,-7.916c-4.548,-2.654 -9.301,-4.542 -14.089,-5.993c-4.808,-1.405 -9.675,-2.4 -14.64,-2.913c-2.479,-0.265 -4.985,-0.396 -7.521,-0.415c-1.313,0.027 -2.478,0.012 -3.912,0.125c-0.673,0.049 -1.443,0.093 -2.031,0.156l-1.679,0.2l-0.629,0.085l-0.473,0.075l-0.944,0.156c-0.632,0.097 -1.261,0.229 -1.896,0.358c-1.261,0.246 -2.527,0.573 -3.786,0.916c-2.524,0.698 -5.025,1.653 -7.451,2.816c-4.851,2.32 -9.349,5.667 -12.889,9.669c-0.853,0.904 -1.881,2.229 -2.592,3.169l-0.979,1.354l-1.12,1.688c-0.886,1.378 -1.714,2.803 -2.51,4.251c-0.794,-1.448 -1.623,-2.875 -2.508,-4.251l-1.123,-1.688l-0.976,-1.354c-0.713,-0.94 -1.74,-2.265 -2.594,-3.169c-3.54,-4.003 -8.035,-7.35 -12.887,-9.669c-2.425,-1.164 -4.928,-2.118 -7.45,-2.816c-1.259,-0.342 -2.525,-0.67 -3.789,-0.916c-0.631,-0.128 -1.263,-0.261 -1.894,-0.358l-0.943,-0.156l-0.475,-0.075l-0.627,-0.085l-1.682,-0.2c-0.586,-0.063 -1.357,-0.107 -2.027,-0.156c-1.438,-0.115 -2.603,-0.098 -3.913,-0.125c-2.534,0.02 -5.046,0.15 -7.523,0.415c-4.963,0.512 -9.831,1.507 -14.637,2.913c-4.79,1.451 -9.542,3.339 -14.088,5.993c-4.145,2.422 -8.139,5.143 -11.902,7.916c-3.778,2.781 -7.386,5.643 -10.913,8.461l-2.65,2.138l-2.666,2.203c-1.725,1.458 -3.444,2.916 -5.161,4.369c-6.798,5.783 -13.488,11.58 -20.111,16.68l-1.191,0.911l-1.314,0.974l-2.622,1.929c-1.7,1.209 -3.378,2.432 -5.116,3.599c-3.444,2.362 -6.913,4.579 -10.428,6.587c-3.505,2.031 -7.05,3.868 -10.652,5.456c-3.592,1.618 -7.229,3.018 -10.911,4.162c-3.668,1.188 -7.382,2.114 -11.093,2.921c-1.856,0.398 -3.713,0.76 -5.58,1.049l-1.394,0.233l-1.354,0.206l-1.266,0.157l-1.343,0.135c-3.64,0.329 -7.348,0.456 -10.932,0.417c-3.565,-0.057 -7.111,-0.295 -10.13,-0.884c-2.987,-0.651 -6.254,-1.856 -9.068,-3.202c-2.846,-1.396 -5.446,-3.07 -7.713,-5.052c-9.507,-7.578 -10.474,-20.477 -6.567,-29.692c0.993,-2.356 2.073,-4.451 3.582,-5.916c1.502,-1.515 3.398,-2.564 5.421,-3.272c0.252,-0.094 0.507,-0.174 0.767,-0.25l0.321,-0.1l0.429,-0.104c0.314,-0.083 0.434,-0.083 0.659,-0.137c0.226,-0.021 0.458,-0.063 0.687,-0.071c0.917,-0.055 1.834,0.03 2.699,0.282c1.749,0.479 3.294,1.54 4.457,2.834c1.161,1.299 1.957,2.831 2.35,4.36c0.417,1.521 0.376,3.063 0.13,4.506c-0.477,2.911 -1.551,5.295 -2.789,6.919c-1.242,1.641 -2.678,2.464 -3.712,2.767c-0.517,0.159 -0.928,0.222 -1.205,0.251c-0.279,0.023 -0.42,0.035 -0.42,0.035s0.144,0.008 0.423,0.021c0.279,0.005 0.7,0 1.253,-0.095c1.091,-0.172 2.757,-0.819 4.293,-2.434c1.532,-1.592 2.973,-3.978 3.866,-7.081c0.447,-1.548 0.758,-3.38 0.462,-5.337c-0.282,-1.935 -1.047,-3.932 -2.348,-5.747c-1.301,-1.8 -3.161,-3.445 -5.565,-4.409c-1.195,-0.491 -2.523,-0.777 -3.896,-0.844c-0.345,-0.019 -0.688,-0.006 -1.04,-0.003c-0.347,0.03 -0.813,0.058 -1.071,0.099l-0.437,0.06l-0.539,0.099c-0.32,0.059 -0.64,0.124 -0.961,0.204c-2.568,0.578 -5.278,1.741 -7.613,3.702c-0.583,0.489 -1.141,1.018 -1.659,1.589c-0.492,0.521 -1.102,1.321 -1.437,1.792c-0.861,1.294 -1.608,2.491 -2.3,3.857c-2.738,5.351 -4.332,11.864 -3.688,18.83c0.33,3.473 1.289,7.026 2.938,10.402c0.397,0.854 0.963,1.749 1.463,2.624c0.492,0.769 0.944,1.383 1.423,2.09l0.979,1.234c0.283,0.366 0.601,0.709 0.904,1.067c0.605,0.714 1.264,1.388 1.931,2.063c2.682,2.684 5.817,5.021 9.201,6.97c3.447,1.938 6.898,3.459 10.982,4.747c4.12,1.115 8.031,1.572 12.018,1.917c3.978,0.309 7.964,0.439 12.105,0.343l1.579,-0.054l1.659,-0.097l0.733,-0.056l0.455,-0.042l0.383,-0.047l1.534,-0.182c2.049,-0.224 4.108,-0.523 6.18,-0.87c2.073,-0.311 4.147,-0.762 6.234,-1.192c2.071,-0.516 4.168,-0.987 6.239,-1.62c4.162,-1.171 8.304,-2.632 12.374,-4.328c4.086,-1.672 8.09,-3.608 12.001,-5.728c3.926,-2.102 7.753,-4.398 11.496,-6.818c1.879,-1.188 3.741,-2.462 5.618,-3.721l2.693,-1.871l1.342,-0.935l1.443,-1.039c7.341,-5.444 14.094,-11.189 20.98,-16.862c1.71,-1.407 3.423,-2.814 5.14,-4.227l2.53,-2.063l2.603,-2.078c3.504,-2.775 6.976,-5.498 10.484,-8.054c3.52,-2.563 7.027,-4.925 10.715,-7.058c3.283,-1.907 6.996,-3.444 10.874,-4.627c7.787,-2.273 16.193,-3.396 23.911,-2.417l1.301,0.203c0.486,0.068 0.957,0.169 1.43,0.263c0.956,0.177 1.873,0.418 2.786,0.658c1.825,0.488 3.555,1.117 5.189,1.875c3.27,1.516 6.143,3.573 8.56,6.219c0.683,0.713 1.023,1.158 1.679,1.969l0.995,1.341l0.735,1.083c1.099,1.652 2.095,3.337 2.997,5.042c1.794,3.416 3.128,6.951 3.885,10.55c0.362,1.742 0.589,3.552 0.692,5.267l-0.004,1.759l0.049,1.172l-0.001,0.083l-0.004,0.201c-0.002,0.135 0,0.076 0.002,0.038l-0.017,0.373l-0.035,0.745l-0.093,1.479c-0.286,3.911 -0.914,7.726 -1.972,11.145c-2.101,6.864 -6.501,13.007 -11.768,17.557c-5.298,4.389 -11.949,7.002 -18.644,7.396c-0.836,0.085 -1.671,0.063 -2.505,0.079c-0.838,-0.005 -1.523,-0.052 -2.359,-0.088l-1.428,-0.161l-0.712,-0.079l-0.464,-0.08c-0.814,-0.132 -1.625,-0.271 -2.426,-0.476c-3.215,-0.729 -6.288,-1.936 -9.099,-3.466c-2.807,-1.54 -5.371,-3.411 -7.453,-5.62c-1.035,-1.107 -2.021,-2.251 -2.81,-3.491c-0.453,-0.623 -0.75,-1.191 -1.084,-1.761l-0.255,-0.427l-0.266,-0.585l-0.531,-1.163l-0.119,-0.262l-0.042,-0.114l-0.183,-0.492c-0.134,-0.327 -0.245,-0.657 -0.334,-0.993c-0.222,-0.657 -0.36,-1.334 -0.511,-2.008c-0.261,-1.348 -0.355,-2.715 -0.324,-4.073c0.054,-2.726 0.736,-5.411 1.736,-7.943c2.096,-5.059 5.704,-9.345 9.724,-12.489c4.023,-3.134 8.531,-5.295 12.792,-6.106c2.125,-0.392 4.211,-0.434 6.01,0.036c0.907,0.215 1.737,0.566 2.463,1.038c0.395,0.229 0.682,0.479 0.984,0.718c0.28,0.218 0.75,0.783 0.936,0.972c2.151,2.693 2.534,6.312 2.544,9.228c-0.018,2.912 -1.123,5.281 -2.208,7.061c-1.07,1.787 -2.147,3.025 -3.127,3.468c-0.999,0.45 -1.601,0.058 -1.582,0.099c-0.014,-0.05 0.521,0.438 1.66,0.106c1.105,-0.342 2.431,-1.487 3.737,-3.205c1.309,-1.675 2.849,-4.104 3.257,-7.397c0.19,-1.583 0.286,-3.329 0.075,-5.204c-0.225,-1.868 -0.775,-3.926 -2.024,-5.839c-0.436,-0.579 -0.579,-0.823 -1.023,-1.313c-0.435,-0.466 -0.894,-0.923 -1.375,-1.273c-0.957,-0.762 -2.073,-1.374 -3.263,-1.79c-2.382,-0.879 -5.001,-1.06 -7.599,-0.848c-5.24,0.432 -10.491,2.534 -15.476,5.754c-4.937,3.262 -9.626,7.856 -12.834,14.043c-3.198,6.142 -4.429,14.236 -1.569,22.025l0.452,1.195l0.228,0.601l0.335,0.716c0.45,0.958 0.917,1.942 1.428,2.768c0.97,1.75 2.17,3.369 3.452,4.93c2.581,3.121 5.737,5.771 9.215,7.992c3.477,2.238 7.343,3.957 11.461,5.107c1.024,0.309 2.076,0.548 3.134,0.77l0.397,0.086l0.198,0.043c-0.07,-0.008 0.325,0.06 0.347,0.061l0.708,0.114l1.42,0.229c1.079,0.12 2.313,0.262 3.409,0.317c1.098,0.038 2.205,0.105 3.315,0.056c8.879,-0.104 18.049,-3.116 25.644,-8.82c0.92,-0.741 1.878,-1.457 2.75,-2.271c0.889,-0.797 1.785,-1.631 2.523,-2.408c1.691,-1.758 3.144,-3.512 4.557,-5.448c1.189,-1.635 2.277,-3.385 3.281,-5.197c1.005,1.814 2.093,3.563 3.283,5.197c1.412,1.938 2.868,3.69 4.556,5.448c0.738,0.777 1.637,1.611 2.524,2.408c0.873,0.814 1.83,1.53 2.748,2.271c7.596,5.704 16.767,8.718 25.647,8.82c1.109,0.05 2.214,-0.018 3.313,-0.056c1.098,-0.056 2.331,-0.197 3.41,-0.317l1.42,-0.229l0.707,-0.114c0.021,-0.001 0.417,-0.066 0.349,-0.061l0.195,-0.043l0.399,-0.086c1.056,-0.222 2.109,-0.461 3.133,-0.77c4.116,-1.15 7.983,-2.869 11.462,-5.107c3.476,-2.222 6.634,-4.871 9.213,-7.992c1.28,-1.561 2.484,-3.18 3.453,-4.93c0.509,-0.823 0.975,-1.81 1.428,-2.768l0.333,-0.716l0.229,-0.601l0.451,-1.195c2.859,-7.787 1.63,-15.884 -1.568,-22.025c-3.207,-6.185 -7.897,-10.779 -12.834,-14.043c-4.983,-3.22 -10.236,-5.323 -15.478,-5.754c-2.598,-0.211 -5.215,-0.032 -7.596,0.848c-1.19,0.417 -2.308,1.028 -3.265,1.79c-0.479,0.351 -0.94,0.809 -1.375,1.273c-0.443,0.49 -0.588,0.734 -1.021,1.313c-1.251,1.913 -1.8,3.972 -2.027,5.839c-0.21,1.875 -0.113,3.622 0.075,5.204c0.411,3.293 1.948,5.723 3.261,7.397c1.304,1.718 2.629,2.863 3.733,3.205c1.14,0.331 1.675,-0.156 1.659,-0.106c0.021,-0.041 -0.582,0.353 -1.579,-0.099c-0.979,-0.44 -2.062,-1.681 -3.131,-3.468c-1.085,-1.778 -2.192,-4.146 -2.208,-7.061c0.01,-2.916 0.395,-6.535 2.545,-9.228c0.188,-0.188 0.655,-0.753 0.936,-0.972c0.303,-0.239 0.592,-0.489 0.985,-0.718c0.728,-0.472 1.555,-0.823 2.466,-1.038c1.8,-0.47 3.884,-0.427 6.01,-0.036c4.258,0.813 8.768,2.973 12.789,6.106c4.021,3.145 7.628,7.433 9.723,12.489c1.002,2.532 1.684,5.219 1.737,7.943c0.03,1.358 -0.062,2.727 -0.322,4.073c-0.151,0.674 -0.29,1.351 -0.512,2.008c-0.091,0.336 -0.201,0.666 -0.334,0.993l-0.185,0.492l-0.047,0.121c0.003,-0.003 -0.001,0.008 -0.002,0.008l-0.112,0.247l-0.529,1.163l-0.268,0.585l-0.254,0.427c-0.337,0.568 -0.632,1.138 -1.086,1.761c-0.787,1.24 -1.776,2.384 -2.81,3.491c-2.08,2.209 -4.647,4.08 -7.453,5.62c-2.813,1.53 -5.884,2.736 -9.1,3.466c-0.799,0.204 -1.612,0.344 -2.428,0.476l-0.463,0.08l-0.714,0.079l-1.427,0.161c-0.838,0.036 -1.522,0.083 -2.358,0.088c-0.833,-0.017 -1.672,0.007 -2.508,-0.079c-6.694,-0.394 -13.344,-3.007 -18.644,-7.396c-5.265,-4.55 -9.667,-10.692 -11.769,-17.557c-1.056,-3.419 -1.686,-7.233 -1.972,-11.145l-0.094,-1.479l-0.035,-0.745l-0.015,-0.346c0.002,0.023 0.005,0.029 0,-0.065l-0.002,-0.201l-0.002,-0.086l0.05,-1.169l-0.006,-1.767c0.104,-1.712 0.33,-3.52 0.691,-5.258c0.761,-3.599 2.092,-7.134 3.887,-10.55c0.904,-1.704 1.898,-3.39 2.998,-5.041l0.733,-1.083l0.994,-1.341c0.654,-0.813 0.996,-1.256 1.681,-1.969c2.419,-2.646 5.29,-4.703 8.561,-6.219c1.637,-0.758 3.364,-1.387 5.188,-1.875c0.916,-0.24 1.833,-0.481 2.786,-0.658c0.475,-0.094 0.945,-0.195 1.434,-0.263l1.302,-0.203c7.719,-0.981 16.121,0.143 23.909,2.417c3.878,1.184 7.592,2.72 10.876,4.627c3.688,2.132 7.191,4.494 10.715,7.058c3.508,2.556 6.979,5.278 10.484,8.055l2.603,2.077l2.531,2.063c1.717,1.412 3.429,2.82 5.138,4.227c6.887,5.673 13.641,11.419 20.983,16.862l1.44,1.039l1.345,0.936l2.69,1.869c1.878,1.259 3.738,2.532 5.62,3.723c3.741,2.42 7.57,4.717 11.497,6.817c3.906,2.118 7.913,4.056 11.999,5.729c4.07,1.696 8.212,3.157 12.373,4.327c2.071,0.634 4.167,1.104 6.239,1.621c2.086,0.431 4.164,0.882 6.232,1.191c2.073,0.347 4.133,0.647 6.185,0.87l1.53,0.182l0.386,0.047l0.453,0.043l0.731,0.056l1.661,0.096l1.577,0.054c4.142,0.098 8.129,-0.035 12.106,-0.343c3.983,-0.345 7.896,-0.802 12.016,-1.917c4.083,-1.288 7.536,-2.808 10.983,-4.747c3.385,-1.948 6.52,-4.285 9.2,-6.97c0.666,-0.676 1.326,-1.351 1.931,-2.064c0.305,-0.357 0.62,-0.699 0.904,-1.066l0.98,-1.233c0.479,-0.707 0.928,-1.322 1.42,-2.091c0.501,-0.875 1.068,-1.771 1.465,-2.624c1.648,-3.376 2.607,-6.931 2.937,-10.401c0.655,-6.97 -0.939,-13.484 -3.676,-18.835z"/>
     </g>
    </svg>
   </g>
  </g>
  <g id="svg_74" class="svg-clip svg-visible" transform="matrix(0.2578,0.2087,-0.2087,0.2578,512.2407,397.7622) ">
   <rect id="svg_75" class="svg-hitbox" fill="none" height="186" width="187" y="-39.04686" x="-737.5837"/>
   <g id="svg_6">
    <svg y="-39.04686" x="-737.5837" id="svg_76" viewBox="-5.131860901213205,-5,187.0337218024264,186.77" height="186.77" width="187.03372">
     <desc>Created with Snap</desc>

     <g id="svg_77"/>
     <g id="svg_78"/>
     <g id="svg_79"/>
     <g id="svg_80"/>
     <g id="svg_81"/>
     <g id="svg_82"/>
     <g id="svg_83">
      <circle id="svg_84" fill="url('#linearGradientSkhrq783w6zk')" r="88.385" cy="88.385" cx="88.385"/>
     </g>
    </svg>
   </g>
  </g>
  <g id="svg_85" class="svg-text svg-visible" transform="matrix(1.106,0,0,1.106,347,261) ">
   <path id="svg_86" d="m-132.55694,55.71791c200.99991,-357.99994 323.99991,93.00006 644.99995,-76.99995" fill="none"/>
   <path id="svg_87" fill="url('#linearGradientSkhrq783w724')" d="m-108.31108,15.64412l0,0l-8.82385,12.74322q-1.08164,1.56207 -2.26435,1.777q-1.18271,0.21493 -2.74478,-0.8667l0,0l-53.27487,-36.8894q-1.56207,-1.08164 -1.77701,-2.26435q-0.21493,-1.18271 0.86671,-2.74478l0,0l17.41999,-25.15758q7.74222,-11.18114 15.0282,-12.21774q7.28598,-1.0366 14.43862,3.91614l0,0l10.52343,7.2868q7.15265,4.95274 8.74582,12.13758q1.59316,7.18483 -6.14906,18.36597l0,0l-6.54673,9.45465l13.64758,9.45006q1.56207,1.08164 1.777,2.26435q0.21493,1.18271 -0.8667,2.74478zm-36.76114,-40.53725l-5.12353,7.39929l12.41436,8.59614l5.12353,-7.39929q1.65091,-2.38421 0.93005,-3.97806q-0.72086,-1.59385 -2.28293,-2.67549l0,0l-4.35736,-3.01718q-1.56207,-1.08164 -3.30764,-1.19563q-1.74557,-0.11399 -3.39648,2.27022l0,0zm101.3229,-34.26859l0,0l-33.59203,32.00837q-1.37554,1.31068 -2.57727,1.28167q-1.20173,-0.02901 -2.51242,-1.40455l0,0l-44.70133,-46.91301q-1.31069,-1.37553 -1.28168,-2.57727q0.02901,-1.20173 1.40455,-2.51241l0,0l33.59203,-32.00837q1.37554,-1.31068 2.57727,-1.28167q1.20173,0.02901 2.51242,1.40454l0,0l8.07107,8.47041q1.31069,1.37554 1.28168,2.57727q-0.02901,1.20173 -1.40455,2.51242l0,0l-19.98147,19.03945l5.31174,5.57454l14.11734,-13.45179q1.37553,-1.31068 2.57727,-1.28167q1.20173,0.02901 2.51241,1.40454l0,0l7.38124,7.74644q1.31069,1.37554 1.28168,2.57727q-0.02901,1.20173 -1.40455,2.51242l0,0l-14.11734,13.45179l5.93258,6.22611l19.98147,-19.03946q1.37554,-1.31069 2.57727,-1.28167q1.20173,0.02901 2.51242,1.40454l0,0l8.07107,8.47041q1.31069,1.37553 1.28168,2.57726q-0.02901,1.20174 -1.40455,2.51242zm59.0425,-28.08021l0,0l-43.4054,16.39912q-1.77738,0.67152 -2.87294,0.17679q-1.09555,-0.49472 -1.76707,-2.2721l0,0l-22.90222,-60.61789q-0.67152,-1.77737 -0.17679,-2.87293q0.49473,-1.09556 2.2721,-1.76707l0,0l43.4054,-16.39913q1.77738,-0.67151 2.87294,-0.17678q1.09555,0.49472 1.76707,2.2721l0,0l4.13512,10.9449q0.67152,1.77737 0.17679,2.87293q-0.49472,1.09556 -2.2721,1.76707l0,0l-25.81873,9.75465l2.7214,7.20305l18.2415,-6.89187q1.77738,-0.67152 2.87293,-0.17679q1.09556,0.49473 1.76707,2.27211l0,0l3.7817,10.00943q0.67151,1.77738 0.17679,2.87293q-0.49473,1.09556 -2.27211,1.76708l0,0l-18.24149,6.89187l3.03949,8.04497l25.81873,-9.75465q1.77738,-0.67152 2.87294,-0.17679q1.09555,0.49472 1.76707,2.2721l0,0l4.13512,10.9449q0.67152,1.77737 0.17679,2.87293q-0.49473,1.09556 -2.2721,1.76707zm35.07352,1.19047l0,0l-15.29335,-2.52262q-1.87467,-0.30922 -2.575,-1.28623q-0.70033,-0.977 -0.3911,-2.85167l0,0l10.54619,-63.93605q0.30922,-1.87466 1.28623,-2.57499q0.977,-0.70033 2.85167,-0.39111l0,0l15.29334,2.52262q1.87467,0.30923 2.575,1.28623q0.70033,0.97701 0.39111,2.85168l0,0l-3.74325,22.69335l3.94667,0.65099l13.95475,-21.31302q0.98361,-1.66208 2.28968,-2.20678q1.30606,-0.5447 3.18073,-0.23547l0,0l15.19467,2.50634q1.67734,0.27668 2.131,1.21299q0.45367,0.93632 -0.4974,2.40106l0,0l-13.85608,21.32931q5.47651,1.20739 8.18781,5.35394q2.7113,4.14655 1.7348,10.06655l0,0l-4.58954,27.82402q-0.30923,1.87467 -1.28623,2.575q-0.97701,0.70033 -2.85168,0.39111l0,0l-15.19467,-2.50635q-1.87467,-0.30922 -2.575,-1.28623q-0.70033,-0.977 -0.39111,-2.85167l0,0l3.17363,-19.24002q0.26039,-1.57866 -0.38246,-2.59686q-0.64286,-1.0182 -2.22153,-1.2786l0,0l-13.02401,-2.1483l-3.72697,22.59468q-0.30923,1.87467 -1.28623,2.575q-0.97701,0.70033 -2.85167,0.3911zm88.92535,1.40349l-24.639,-10.54321q-1.7468,-0.74747 -2.19387,-1.86333q-0.44706,-1.11585 0.3004,-2.86264l0,0l5.27161,-12.31951q0.74747,-1.74679 1.86332,-2.19386q1.11586,-0.44707 2.86265,0.3004l0,0l24.63901,10.54322q1.74679,0.74746 2.19386,1.86332q0.44707,1.11585 -0.3004,2.86265l0,0l-5.27161,12.3195q-0.74746,1.74679 -1.86332,2.19386q-1.11585,0.44707 -2.86265,-0.3004l0,0zm48.82548,-4.13443l0,0l-10.9317,11.55976l14.08473,6.93615l2.49881,-15.71261q0.03876,-0.98412 -0.18822,-1.54178q-0.22699,-0.55765 -0.76526,-0.82273l0,0l-2.24279,-1.10448q-0.53827,-0.26507 -1.11869,-0.10503q-0.58042,0.16004 -1.33688,0.79072zm-19.86945,27.4455l-6.1851,12.55963q-0.83941,1.70453 -1.97748,2.09155q-1.13808,0.38703 -2.8426,-0.45238l0,0l-13.18762,-6.49435q-1.70452,-0.83941 -2.09155,-1.97748q-0.38702,-1.13808 0.45238,-2.8426l0,0l11.66334,-23.68389q1.32537,-2.69135 3.90063,-5.77041q2.57525,-3.07905 6.66681,-6.86047l0,0l17.83362,-16.52096q1.28931,-1.26002 2.76415,-1.42548q1.47483,-0.16545 3.26906,0.71814l0,0l24.13245,11.88423q1.70452,0.8394 2.47248,2.10934q0.76797,1.26993 0.55519,3.06011l0,0l-2.22378,24.20815q-0.50309,5.5486 -1.37382,9.46706q-0.87073,3.91846 -2.19611,6.60981l0,0l-11.66334,23.68389q-0.8394,1.70452 -1.97748,2.09155q-1.13807,0.38702 -2.84259,-0.45238l0,0l-13.54647,-6.67108q-1.79423,-0.88358 -2.27097,-2.06584q-0.47674,-1.18225 0.36267,-2.88677l0,0l6.1851,-12.55964l-15.87897,-7.81973zm74.96492,26.8066l-24.48015,-10.90698q-1.73553,-0.77325 -2.16603,-1.8956q-0.43049,-1.12236 0.34277,-2.85789l0,0l5.45348,-12.24008q0.77326,-1.73553 1.89561,-2.16602q1.12235,-0.4305 2.85789,0.34276l0,0l24.48015,10.90697q1.73554,0.77326 2.16603,1.89561q0.43049,1.12235 -0.34277,2.85789l0,0l-5.45348,12.24007q-0.77326,1.73554 -1.89561,2.16603q-1.12235,0.43049 -2.85789,-0.34276l0,0zm42.78661,42.30121l0,0l-36.69912,-11.30198q-1.81584,-0.55921 -2.37801,-1.62174q-0.56218,-1.06252 -0.00297,-2.87836l0,0l19.0721,-61.92976q0.55922,-1.81584 1.62174,-2.37802q1.06252,-0.56218 2.87837,-0.00296l0,0l30.48702,9.38888q9.36592,2.88437 12.75403,7.85158q3.38811,4.96721 1.0924,12.42172l0,0l-1.41275,4.58739q-1.23616,4.01397 -3.40188,6.11982q-2.16573,2.10585 -5.41547,2.4653l0,0q5.93992,2.45709 7.78419,7.00118q1.84426,4.54408 -0.30429,11.52073l0,0l-2.70777,8.7925q-2.47231,8.02793 -8.1892,10.45272q-5.7169,2.4248 -15.17839,-0.489zm5.67497,-55.80138l-8.1235,-2.50174l-3.17868,10.32162l8.1235,2.50174q1.81584,0.55922 3.01808,-0.11688q1.20225,-0.6761 1.79089,-2.58751l0,0l0.82411,-2.67598q0.58864,-1.91141 -0.02496,-3.14673q-0.6136,-1.23531 -2.42944,-1.79452l0,0zm-3.41057,26.36395l-12.42418,-3.82619l-3.47301,11.27733l12.42418,3.82619q1.81585,0.55922 3.01809,-0.11688q1.20224,-0.6761 1.79089,-2.58752l0,0l1.14786,-3.72725q0.58864,-1.91141 -0.03967,-3.09894q-0.62832,-1.18753 -2.44416,-1.74674l0,0zm91.79322,-11.16707l-2.29978,34.02236q-0.31023,4.58953 -1.91006,8.23994q-1.59984,3.65042 -5.2207,6.06171q-3.62087,2.41129 -9.75826,3.49985q-6.13739,1.08856 -15.41621,0.46135l0,0q-9.27883,-0.62721 -15.26378,-2.53519q-5.98494,-1.90798 -9.24837,-4.78462q-3.26342,-2.87664 -4.35744,-6.70915q-1.09402,-3.83251 -0.78379,-8.42204l0,0l2.29978,-34.02236q0.31023,-4.58953 1.91006,-8.23994q1.59984,-3.65042 5.22408,-6.11159q3.62423,-2.46118 9.81151,-3.54637q6.18727,-1.08519 15.4661,-0.45798l0,0q9.27882,0.62721 15.21389,2.53182q5.93506,1.90461 9.19511,4.83114q3.26005,2.92653 4.35407,6.75903q1.09402,3.83251 0.78379,8.42204l0,0zm-39.55309,0.93459l-1.81419,26.83875q-0.13488,1.99545 1.27066,3.44354q1.40553,1.44809 6.79324,1.81227l0,0q5.3877,0.36419 6.97534,-0.88157q1.58763,-1.24577 1.72251,-3.24121l0,0l1.81419,-26.83876q0.12814,-1.89567 -1.2774,-3.34376q-1.40553,-1.44809 -6.79324,-1.81228l0,0q-5.38771,-0.36418 -6.97534,0.88158q-1.58763,1.24576 -1.71577,3.14144l0,0zm98.45474,-13.00055l6.64068,33.44715q0.89581,4.51193 0.30193,8.45303q-0.59387,3.94111 -3.46175,7.21223q-2.86789,3.27112 -8.50995,5.92059q-5.64206,2.64947 -14.764,4.46056l0,0q-9.12195,1.81109 -15.39728,1.52773q-6.27532,-0.28336 -10.17534,-2.21076q-3.90001,-1.92741 -5.95444,-5.34272q-2.05443,-3.4153 -2.95024,-7.92723l0,0l-6.64068,-33.44714q-0.89581,-4.51194 -0.30194,-8.45304q0.59388,-3.94111 3.45202,-7.26127q2.85815,-3.32017 8.54925,-5.97937q5.6911,-2.6592 14.81305,-4.4703l0,0q9.12195,-1.81109 15.34823,-1.51799q6.22629,0.29309 10.13604,2.26954q3.90975,1.97645 5.96418,5.39176q2.05443,3.4153 2.95024,7.92723l0,0zm-37.9446,11.20389l5.23854,26.38499q0.38948,1.96171 2.12366,2.99375q1.73419,1.03204 7.0308,-0.01956l0,0q5.29662,-1.05161 6.505,-2.66787q1.20838,-1.61627 0.8189,-3.57798l0,0l-5.23854,-26.38499q-0.37001,-1.86362 -2.1042,-2.89566q-1.73418,-1.03204 -7.03079,0.01956l0,0q-5.29662,1.0516 -6.505,2.66787q-1.20838,1.61626 -0.83837,3.47989l0,0zm70.78103,2.94193l0,0l-14.39958,5.73602q-1.76511,0.70312 -2.86932,0.22802q-1.10421,-0.4751 -1.90024,-2.2032l0,0l-15.67805,-35.30452q-0.79602,-1.7281 -0.36737,-2.81381q0.42865,-1.08571 2.19376,-1.78883l0,0l17.744,-7.06826q1.76511,-0.70312 2.82287,-0.20952q1.05776,0.4936 1.66799,2.29572l0,0l12.98393,36.37771q0.61022,1.80211 0.08867,2.92483q-0.52155,1.12271 -2.28666,1.82584zm11.08923,23.78484l0,0l-17.0937,6.80921q-1.76511,0.70313 -2.86932,0.22803q-1.10421,-0.4751 -1.80733,-2.24021l0,0l-4.84787,-12.16997q-0.70312,-1.76511 -0.22802,-2.86932q0.4751,-1.10421 2.24021,-1.80734l0,0l17.0937,-6.80921q1.76511,-0.70312 2.86932,-0.22802q1.10421,0.47509 1.80734,2.2402l0,0l4.84786,12.16998q0.70312,1.76511 0.22802,2.86932q-0.47509,1.10421 -2.24021,1.80733z"/>
   <rect width="0" height="0" x="-164.55696" y="-148.2821" id="svg_88"/>
  </g>
  <g id="svg_89">
   <rect id="svg_90" stroke="#ff8800" fill="rgba(255,136,0,0.1)" height="0" width="0" y="0" x="0"/>
  </g>
  <g id="svg_91" class="selector-part">
   <rect id="svg_92" stroke="#3399ff" fill="rgba(168,202,236,0.5)" height="0" width="0" y="0" x="0"/>
  </g>
 </g>
</svg>